<?xml version="1.0" standalone="no"?>
<!DOCTYPE svg PUBLIC "-//W3C//DTD SVG 20010904//EN"
 "http://www.w3.org/TR/2001/REC-SVG-20010904/DTD/svg10.dtd">
<svg version="1.0" xmlns="http://www.w3.org/2000/svg"
 width="512.000000pt" height="512.000000pt" viewBox="0 0 512.000000 512.000000"
 preserveAspectRatio="xMidYMid meet">
<metadata>
Created by potrace 1.11, written by Peter Selinger 2001-2013
</metadata>
<g transform="translate(0.000000,512.000000) scale(0.100000,-0.100000)"
fill="#000000" stroke="none">
<path d="M388 5104 c-185 -44 -336 -202 -377 -392 -16 -76 -16 -4228 0 -4304
32 -149 138 -287 276 -357 105 -53 0 -51 2273 -51 2273 0 2168 -2 2273 51 138
70 244 208 276 357 16 76 16 4228 0 4304 -32 149 -138 287 -276 357 -105 53 1
51 -2278 50 -1766 -1 -2119 -3 -2167 -15z m1294 -1987 l3 -844 819 844 820
843 170 0 170 0 -65 -67 c-36 -38 -310 -323 -608 -636 l-542 -567 628 -742
c345 -408 636 -752 646 -765 l18 -23 -175 0 -175 0 -567 653 c-312 358 -570
653 -574 655 -4 1 -134 -127 -288 -286 l-282 -290 0 -366 0 -366 -150 0 -150
0 0 1400 0 1400 150 0 150 0 2 -843z"/>
</g>
</svg>
